<svg width="640" height="368" viewBox="0 0 640 368" fill="none" xmlns="http://www.w3.org/2000/svg">
<path d="M461.481 72.698C415.281 9.10921 334.529 -14.4195 263.804 9.02949C297.307 26.2201 327.27 51.2979 350.899 83.8204L402.624 155.014C407.797 162.133 406.204 172.19 399.084 177.363C391.965 182.535 381.908 180.942 376.735 173.823L367.331 160.879L325.01 102.63C315.253 89.1998 304.253 77.2915 292.31 66.8089C272.314 49.3233 249.653 35.9978 225.506 27.0901C160.046 2.83353 84.0582 10.7008 23.301 54.8435L10.3567 64.248C-0.403178 72.0656 -2.77036 87.0114 5.04719 97.7713C12.8647 108.531 27.8105 110.898 38.5704 103.081L51.5147 93.6763C90.9139 65.0511 138.516 56.0528 182.808 64.7863C133.366 125.183 128.684 213.502 176.707 279.598L177.294 280.407C255.507 386.867 423.675 396.821 553.523 302.482C587.987 277.442 616.344 247.569 637.879 215.112C641.933 208.953 635.753 200.959 628.438 201.948C588.91 207.428 547.709 191.381 522.61 156.836L461.481 72.698Z" fill="#3C703D"/>
</svg>
