<svg width="218" height="219" viewBox="0 0 218 219" fill="none" xmlns="http://www.w3.org/2000/svg">
<path d="M183.829 80.0572C182.393 76.4186 151.314 89.7895 149.299 86.2999C146.567 81.5685 172.782 60.2726 169.301 56.3294C144.628 28.3833 102.906 20.7088 69.3738 40.0686C31.1104 62.16 18.0004 111.087 40.0918 149.351C62.1832 187.614 111.11 200.724 149.374 178.633C184.148 158.556 198.147 116.315 183.829 80.0572Z" fill="#F9BAEF"/>
<mask id="mask0_702_11" style="mask-type:luminance" maskUnits="userSpaceOnUse" x="29" y="29" width="161" height="161">
<path d="M183.829 80.0572C182.393 76.4186 151.314 89.7895 149.299 86.2999C146.567 81.5685 172.782 60.2726 169.301 56.3294C144.628 28.3833 102.906 20.7088 69.3738 40.0686C31.1104 62.16 18.0004 111.087 40.0918 149.351C62.1832 187.614 111.11 200.724 149.374 178.633C184.148 158.556 198.147 116.315 183.829 80.0572Z" fill="#288A2B"/>
</mask>
<g mask="url(#mask0_702_11)">
<path fill-rule="evenodd" clip-rule="evenodd" d="M196.82 72.5572C195.383 68.9186 164.304 82.2895 162.289 78.7999C159.558 74.0685 185.773 52.7726 182.291 48.8294C157.618 20.8833 115.896 13.2088 82.3641 32.5686C44.1006 54.66 30.9906 103.587 53.082 141.851C75.1734 180.114 124.101 193.224 162.364 171.133C197.138 151.056 211.137 108.815 196.82 72.5572Z" fill="#DB00EE"/>
</g>
</svg>
