<svg width="160" height="160" viewBox="0 0 160 160" fill="none" xmlns="http://www.w3.org/2000/svg">
<g clip-path="url(#clip0_702_3)">
<path d="M144.223 31.1332C141.866 28.0109 115.49 49.2009 112.616 46.3766C108.72 42.5474 128.29 15.0203 123.882 12.1509C92.6373 -8.18518 50.3821 -4.43088 23.2432 23.1858C-7.72493 54.6992 -7.2829 105.35 24.2305 136.319C55.7439 167.287 106.395 166.845 137.363 135.331C165.507 106.692 167.709 62.2463 144.223 31.1332Z" fill="#CDFF03"/>
<mask id="mask0_702_3" style="mask-type:luminance" maskUnits="userSpaceOnUse" x="0" y="-1" width="161" height="161">
<path d="M144.223 31.1332C141.866 28.0109 115.49 49.2009 112.616 46.3766C108.72 42.5474 128.29 15.0203 123.882 12.1509C92.6373 -8.18518 50.3821 -4.43088 23.2432 23.1858C-7.72493 54.6992 -7.2829 105.35 24.2305 136.319C55.7439 167.287 106.395 166.845 137.363 135.331C165.507 106.692 167.709 62.2463 144.223 31.1332Z" fill="#288A2B"/>
</mask>
<g mask="url(#mask0_702_3)">
<path fill-rule="evenodd" clip-rule="evenodd" d="M154.736 20.4344C152.379 17.3121 126.004 38.5022 123.13 35.6779C119.233 31.8486 138.804 4.32158 134.395 1.45219C103.151 -18.8839 60.8957 -15.1296 33.7569 12.4871C2.78875 44.0005 3.23077 94.6518 34.7442 125.62C66.2576 156.588 116.909 156.146 147.877 124.633C176.021 95.9932 178.222 51.5476 154.736 20.4344Z" fill="#6ED771"/>
</g>
</g>
<defs>
<clipPath id="clip0_702_3">
<rect width="160" height="160" fill="white"/>
</clipPath>
</defs>
</svg>
