<svg width="160" height="160" viewBox="0 0 160 160" fill="none" xmlns="http://www.w3.org/2000/svg">
<path d="M154.83 50.0574C153.394 46.4188 122.315 59.7896 120.3 56.3C117.568 51.5687 143.783 30.2727 140.302 26.3296C115.629 -1.61654 73.9069 -9.29101 40.3748 10.0688C2.11139 32.1601 -10.9986 81.0874 11.0928 119.351C33.1842 157.614 82.1114 170.724 120.375 148.633C155.149 128.556 169.148 86.3154 154.83 50.0574Z" fill="#3FA142"/>
<mask id="mask0_703_20" style="mask-type:luminance" maskUnits="userSpaceOnUse" x="0" y="-1" width="161" height="161">
<path d="M154.83 50.0574C153.394 46.4188 122.315 59.7896 120.3 56.3C117.568 51.5687 143.783 30.2727 140.302 26.3296C115.629 -1.61654 73.9069 -9.29101 40.3748 10.0688C2.11139 32.1601 -10.9986 81.0874 11.0928 119.351C33.1842 157.614 82.1114 170.724 120.375 148.633C155.149 128.556 169.148 86.3154 154.83 50.0574Z" fill="#288A2B"/>
</mask>
<g mask="url(#mask0_703_20)">
<path fill-rule="evenodd" clip-rule="evenodd" d="M167.821 42.5574C166.384 38.9188 135.305 52.2896 133.29 48.8C130.559 44.0687 156.773 22.7727 153.292 18.8296C128.619 -9.11654 86.8971 -16.791 53.365 2.56875C15.1016 24.6601 1.99162 73.5874 24.083 111.851C46.1744 150.114 95.1016 163.224 133.365 141.133C168.139 121.056 182.138 78.8154 167.821 42.5574Z" fill="#288A2B"/>
</g>
</svg>
