<svg width="352" height="512" viewBox="0 0 352 512" fill="none" xmlns="http://www.w3.org/2000/svg">
<path d="M281.2 248.9C295.6 228.3 304 203.2 304 176C304 105.3 246.7 48 176 48C105.3 48 48 105.3 48 176C48 203.2 56.4 228.3 70.8 248.9C74.5 254.2 78.9 260.2 83.6 266.6C96.5 284.3 111.9 305.5 123.4 326.4C133.8 345.4 139.1 365.2 141.7 383.9H93C90.8 371.9 87.1 360.2 81.2 349.4C71.3 331.4 59 314.5 46.7 297.6C41.5 290.5 36.3 283.4 31.3 276.2C11.6 247.9 0 213.3 0 176C0 78.8 78.8 0 176 0C273.2 0 352 78.8 352 176C352 213.3 340.4 247.9 320.6 276.3C315.6 283.5 310.4 290.6 305.2 297.7C292.9 314.5 280.6 331.4 270.7 349.5C264.8 360.3 261.1 372 258.9 384H210.4C213 365.3 218.3 345.4 228.7 326.5C240.2 305.6 255.6 284.4 268.5 266.7C273.2 260.3 277.5 254.3 281.2 249V248.9ZM176 128C149.5 128 128 149.5 128 176C128 184.8 120.8 192 112 192C103.2 192 96 184.8 96 176C96 131.8 131.8 96 176 96C184.8 96 192 103.2 192 112C192 120.8 184.8 128 176 128ZM176 512C131.8 512 96 476.2 96 432V416H256V432C256 476.2 220.2 512 176 512Z" fill="#FFF500"/>
</svg>
